<mxfile host="Electron" agent="Mozilla/5.0 (X11; Linux x86_64) AppleWebKit/537.36 (KHTML, like Gecko) draw.io/27.0.5 Chrome/134.0.6998.205 Electron/35.3.0 Safari/537.36" version="27.0.5">
  <diagram name="Page-1" id="ib0KKrDDxVYF5MeXXiUM">
    <mxGraphModel dx="2066" dy="1203" grid="1" gridSize="10" guides="1" tooltips="1" connect="1" arrows="1" fold="1" page="1" pageScale="1" pageWidth="850" pageHeight="1100" background="#ffffff" math="0" shadow="1">
      <root>
        <mxCell id="0" />
        <mxCell id="1" parent="0" />
        <mxCell id="14" value="Specimen and collection" style="edgeStyle=orthogonalEdgeStyle;endArrow=block;html=1;" parent="1" edge="1">
          <mxGeometry relative="1" as="geometry">
            <mxPoint x="750" y="350" as="targetPoint" />
          </mxGeometry>
        </mxCell>
        <mxCell id="15" value="report delivery offline" style="edgeStyle=orthogonalEdgeStyle;endArrow=block;html=1;" parent="1" edge="1">
          <mxGeometry relative="1" as="geometry">
            <mxPoint x="700" y="380" as="sourcePoint" />
          </mxGeometry>
        </mxCell>
        <mxCell id="sfKcnbmMzuwdX9yF3wZo-21" value="&lt;div&gt;&lt;font style=&quot;font-size: 11px;&quot;&gt;Longboard Rider&lt;/font&gt;&lt;/div&gt;" style="shape=umlActor;verticalLabelPosition=bottom;verticalAlign=top;html=1;outlineConnect=0;strokeColor=#666666;align=center;fontFamily=Helvetica;fontSize=12;fontColor=#333333;labelBackgroundColor=none;fillColor=#f5f5f5;horizontal=1;textShadow=0;" parent="1" vertex="1">
          <mxGeometry x="70" y="410" width="30" height="60" as="geometry" />
        </mxCell>
        <mxCell id="CbTRWkR76J8zcbdZSMRa-18" value="&lt;font style=&quot;color: rgb(0, 0, 0);&quot;&gt;Bionic Boarder Application&lt;/font&gt;" style="rounded=1;whiteSpace=wrap;html=1;labelPosition=center;verticalLabelPosition=top;align=center;verticalAlign=bottom;fillColor=#eeeeee;strokeColor=#36393d;" parent="1" vertex="1">
          <mxGeometry x="220" y="210" width="770" height="900" as="geometry" />
        </mxCell>
        <mxCell id="-pO5D620ASrmPBSO5rts-19" style="rounded=0;orthogonalLoop=1;jettySize=auto;html=1;entryX=0;entryY=0.5;entryDx=0;entryDy=0;strokeColor=#000000;endArrow=none;startFill=0;shadow=0;jumpStyle=none;" parent="1" source="sfKcnbmMzuwdX9yF3wZo-21" target="CbTRWkR76J8zcbdZSMRa-20" edge="1">
          <mxGeometry relative="1" as="geometry">
            <mxPoint x="120" y="410" as="sourcePoint" />
          </mxGeometry>
        </mxCell>
        <mxCell id="-pO5D620ASrmPBSO5rts-22" style="rounded=0;orthogonalLoop=1;jettySize=auto;html=1;strokeColor=#000000;endArrow=none;startFill=0;shadow=0;jumpStyle=none;entryX=-0.003;entryY=0.429;entryDx=0;entryDy=0;entryPerimeter=0;" parent="1" source="sfKcnbmMzuwdX9yF3wZo-21" target="-pO5D620ASrmPBSO5rts-21" edge="1">
          <mxGeometry relative="1" as="geometry">
            <mxPoint x="110" y="470" as="sourcePoint" />
            <mxPoint x="80" y="640" as="targetPoint" />
          </mxGeometry>
        </mxCell>
        <mxCell id="-pO5D620ASrmPBSO5rts-23" style="rounded=0;orthogonalLoop=1;jettySize=auto;html=1;strokeColor=#000000;endArrow=none;startFill=0;shadow=0;jumpStyle=none;" parent="1" source="sfKcnbmMzuwdX9yF3wZo-21" target="-pO5D620ASrmPBSO5rts-20" edge="1">
          <mxGeometry relative="1" as="geometry">
            <mxPoint x="100" y="350" as="sourcePoint" />
            <mxPoint x="280" y="378" as="targetPoint" />
          </mxGeometry>
        </mxCell>
        <mxCell id="-pO5D620ASrmPBSO5rts-25" value="Register" style="ellipse;whiteSpace=wrap;html=1;fillColor=#ffcc99;strokeColor=#36393d;fontColor=#7EA6E0;" parent="1" vertex="1">
          <mxGeometry x="260" y="230" width="100" height="48" as="geometry" />
        </mxCell>
        <mxCell id="-pO5D620ASrmPBSO5rts-26" value="Login" style="ellipse;whiteSpace=wrap;html=1;fillColor=#ffcc99;strokeColor=#36393d;fontColor=#7EA6E0;" parent="1" vertex="1">
          <mxGeometry x="370" y="230" width="100" height="48" as="geometry" />
        </mxCell>
        <mxCell id="-pO5D620ASrmPBSO5rts-31" value="Logout" style="ellipse;whiteSpace=wrap;html=1;fillColor=#ffcc99;strokeColor=#36393d;fontColor=#7EA6E0;" parent="1" vertex="1">
          <mxGeometry x="340" y="300" width="100" height="48" as="geometry" />
        </mxCell>
        <mxCell id="-pO5D620ASrmPBSO5rts-32" value="Load existing configuration" style="ellipse;whiteSpace=wrap;html=1;fillColor=#ffcc99;strokeColor=#36393d;fontColor=#7EA6E0;" parent="1" vertex="1">
          <mxGeometry x="810" y="340" width="155" height="65" as="geometry" />
        </mxCell>
        <mxCell id="-pO5D620ASrmPBSO5rts-38" value="&amp;lt;&amp;lt;include&amp;gt;&amp;gt;" style="endArrow=classic;html=1;rounded=0;fillColor=#f5f5f5;gradientColor=#b3b3b3;strokeColor=#666666;dashed=1;fontColor=#060606;align=center;labelBackgroundColor=none;exitX=1.006;exitY=0.393;exitDx=0;exitDy=0;exitPerimeter=0;" parent="1" source="mOMx_mtyLPizFVaN7GqV-16" target="-pO5D620ASrmPBSO5rts-32" edge="1">
          <mxGeometry width="50" height="50" relative="1" as="geometry">
            <mxPoint x="624" y="577" as="sourcePoint" />
            <mxPoint x="718" y="550" as="targetPoint" />
          </mxGeometry>
        </mxCell>
        <mxCell id="-pO5D620ASrmPBSO5rts-39" style="rounded=0;orthogonalLoop=1;jettySize=auto;html=1;strokeColor=#000000;endArrow=none;startFill=0;shadow=0;jumpStyle=none;entryX=0.317;entryY=0.958;entryDx=0;entryDy=0;entryPerimeter=0;" parent="1" source="sfKcnbmMzuwdX9yF3wZo-21" target="-pO5D620ASrmPBSO5rts-25" edge="1">
          <mxGeometry relative="1" as="geometry">
            <mxPoint x="110" y="340" as="sourcePoint" />
            <mxPoint x="260" y="290" as="targetPoint" />
          </mxGeometry>
        </mxCell>
        <mxCell id="-pO5D620ASrmPBSO5rts-40" style="rounded=0;orthogonalLoop=1;jettySize=auto;html=1;strokeColor=#000000;endArrow=none;startFill=0;shadow=0;jumpStyle=none;entryX=0.057;entryY=0.722;entryDx=0;entryDy=0;entryPerimeter=0;" parent="1" source="sfKcnbmMzuwdX9yF3wZo-21" target="-pO5D620ASrmPBSO5rts-26" edge="1">
          <mxGeometry relative="1" as="geometry">
            <mxPoint x="110" y="437" as="sourcePoint" />
            <mxPoint x="290" y="330" as="targetPoint" />
          </mxGeometry>
        </mxCell>
        <mxCell id="-pO5D620ASrmPBSO5rts-41" style="rounded=0;orthogonalLoop=1;jettySize=auto;html=1;strokeColor=#000000;endArrow=none;startFill=0;shadow=0;jumpStyle=none;entryX=0;entryY=0.5;entryDx=0;entryDy=0;" parent="1" source="sfKcnbmMzuwdX9yF3wZo-21" target="-pO5D620ASrmPBSO5rts-31" edge="1">
          <mxGeometry relative="1" as="geometry">
            <mxPoint x="44" y="747" as="sourcePoint" />
            <mxPoint x="250" y="640" as="targetPoint" />
          </mxGeometry>
        </mxCell>
        <mxCell id="-pO5D620ASrmPBSO5rts-42" value="Connect to Longboard VESC" style="ellipse;whiteSpace=wrap;html=1;fillColor=#ffcc99;strokeColor=#36393d;fontColor=#7EA6E0;" parent="1" vertex="1">
          <mxGeometry x="510" y="690" width="155" height="65" as="geometry" />
        </mxCell>
        <mxCell id="-pO5D620ASrmPBSO5rts-43" style="rounded=0;orthogonalLoop=1;jettySize=auto;html=1;strokeColor=#000000;endArrow=none;startFill=0;shadow=0;jumpStyle=none;entryX=0.038;entryY=0.308;entryDx=0;entryDy=0;entryPerimeter=0;" parent="1" source="sfKcnbmMzuwdX9yF3wZo-21" target="-pO5D620ASrmPBSO5rts-42" edge="1">
          <mxGeometry relative="1" as="geometry">
            <mxPoint x="110" y="455" as="sourcePoint" />
            <mxPoint x="472" y="568" as="targetPoint" />
          </mxGeometry>
        </mxCell>
        <mxCell id="-pO5D620ASrmPBSO5rts-44" value="View Live Riding Metrics" style="ellipse;whiteSpace=wrap;html=1;fillColor=#ffcc99;strokeColor=#36393d;fontColor=#7EA6E0;" parent="1" vertex="1">
          <mxGeometry x="240" y="670" width="155" height="65" as="geometry" />
        </mxCell>
        <mxCell id="-pO5D620ASrmPBSO5rts-45" style="rounded=0;orthogonalLoop=1;jettySize=auto;html=1;strokeColor=#000000;endArrow=none;startFill=0;shadow=0;jumpStyle=none;entryX=0.097;entryY=0.195;entryDx=0;entryDy=0;entryPerimeter=0;exitX=1;exitY=1;exitDx=0;exitDy=0;exitPerimeter=0;" parent="1" source="sfKcnbmMzuwdX9yF3wZo-21" target="-pO5D620ASrmPBSO5rts-44" edge="1">
          <mxGeometry relative="1" as="geometry">
            <mxPoint x="110" y="520" as="sourcePoint" />
            <mxPoint x="478" y="650" as="targetPoint" />
          </mxGeometry>
        </mxCell>
        <mxCell id="-pO5D620ASrmPBSO5rts-46" value="&amp;lt;&amp;lt;precedes&amp;gt;&amp;gt;" style="endArrow=classic;html=1;rounded=0;fillColor=#f5f5f5;gradientColor=#b3b3b3;strokeColor=#666666;dashed=1;fontColor=#060606;align=center;labelBackgroundColor=none;entryX=1;entryY=0.5;entryDx=0;entryDy=0;" parent="1" source="-pO5D620ASrmPBSO5rts-42" target="-pO5D620ASrmPBSO5rts-44" edge="1">
          <mxGeometry width="50" height="50" relative="1" as="geometry">
            <mxPoint x="370" y="590" as="sourcePoint" />
            <mxPoint x="456" y="649" as="targetPoint" />
          </mxGeometry>
        </mxCell>
        <mxCell id="-pO5D620ASrmPBSO5rts-47" value="Save configuration" style="ellipse;whiteSpace=wrap;html=1;fillColor=#ffcc99;strokeColor=#36393d;fontColor=#7EA6E0;" parent="1" vertex="1">
          <mxGeometry x="810" y="530" width="155" height="65" as="geometry" />
        </mxCell>
        <mxCell id="mOMx_mtyLPizFVaN7GqV-16" value="&lt;font color=&quot;#000000&quot;&gt;Rider Settings Interface&lt;/font&gt;" style="rounded=1;whiteSpace=wrap;html=1;labelPosition=center;verticalLabelPosition=top;align=center;verticalAlign=bottom;fillColor=none;strokeColor=#36393d;" parent="1" vertex="1">
          <mxGeometry x="480" y="310" width="250" height="310" as="geometry" />
        </mxCell>
        <mxCell id="-pO5D620ASrmPBSO5rts-49" value="&amp;lt;&amp;lt;include&amp;gt;&amp;gt;" style="endArrow=classic;html=1;rounded=0;exitX=1.006;exitY=0.658;exitDx=0;exitDy=0;exitPerimeter=0;fillColor=#f5f5f5;gradientColor=#b3b3b3;strokeColor=#666666;dashed=1;fontColor=#060606;align=center;labelBackgroundColor=none;" parent="1" source="mOMx_mtyLPizFVaN7GqV-16" target="-pO5D620ASrmPBSO5rts-47" edge="1">
          <mxGeometry width="50" height="50" relative="1" as="geometry">
            <mxPoint x="570" y="495" as="sourcePoint" />
            <mxPoint x="646" y="519" as="targetPoint" />
          </mxGeometry>
        </mxCell>
        <mxCell id="CbTRWkR76J8zcbdZSMRa-20" value="Provide Electric Longboard Configuration" style="ellipse;whiteSpace=wrap;html=1;fillColor=#ffcc99;strokeColor=#36393d;fontColor=#7EA6E0;" parent="1" vertex="1">
          <mxGeometry x="527.5" y="335" width="155" height="65" as="geometry" />
        </mxCell>
        <mxCell id="-pO5D620ASrmPBSO5rts-20" value="Configure Boosting Settings" style="ellipse;whiteSpace=wrap;html=1;fillColor=#ffcc99;strokeColor=#36393d;fontColor=#7EA6E0;" parent="1" vertex="1">
          <mxGeometry x="527.5" y="425" width="155" height="65" as="geometry" />
        </mxCell>
        <mxCell id="-pO5D620ASrmPBSO5rts-21" value="Configure Assisted Braking Settings" style="ellipse;whiteSpace=wrap;html=1;fillColor=#ffcc99;strokeColor=#36393d;fontColor=#7EA6E0;" parent="1" vertex="1">
          <mxGeometry x="527.5" y="525" width="155" height="65" as="geometry" />
        </mxCell>
        <mxCell id="mOMx_mtyLPizFVaN7GqV-19" value="&amp;lt;&amp;lt;precedes&amp;gt;&amp;gt;" style="endArrow=classic;html=1;rounded=0;fillColor=#f5f5f5;gradientColor=#b3b3b3;strokeColor=#666666;dashed=1;fontColor=#060606;align=center;labelBackgroundColor=none;entryX=0.5;entryY=0;entryDx=0;entryDy=0;exitX=0.529;exitY=1;exitDx=0;exitDy=0;exitPerimeter=0;" parent="1" source="mOMx_mtyLPizFVaN7GqV-16" target="-pO5D620ASrmPBSO5rts-42" edge="1">
          <mxGeometry width="50" height="50" relative="1" as="geometry">
            <mxPoint x="663.5" y="670" as="sourcePoint" />
            <mxPoint x="546.5" y="658" as="targetPoint" />
          </mxGeometry>
        </mxCell>
        <mxCell id="Oc5IdtsNS1ppK-HnSMyC-15" value="&lt;div&gt;&lt;span style=&quot;font-size: 11px; background-color: transparent;&quot;&gt;Longboard VESC&lt;/span&gt;&lt;/div&gt;" style="shape=umlActor;verticalLabelPosition=bottom;verticalAlign=top;html=1;outlineConnect=0;strokeColor=#666666;align=center;fontFamily=Helvetica;fontSize=12;fontColor=#000000;labelBackgroundColor=none;fillColor=#f5f5f5;horizontal=1;textShadow=0;" vertex="1" parent="1">
          <mxGeometry x="1100" y="660" width="30" height="60" as="geometry" />
        </mxCell>
        <mxCell id="Oc5IdtsNS1ppK-HnSMyC-18" style="rounded=0;orthogonalLoop=1;jettySize=auto;html=1;strokeColor=#000000;endArrow=none;startFill=0;shadow=0;jumpStyle=none;exitX=0.643;exitY=0.005;exitDx=0;exitDy=0;exitPerimeter=0;" edge="1" parent="1" source="-pO5D620ASrmPBSO5rts-44" target="Oc5IdtsNS1ppK-HnSMyC-15">
          <mxGeometry relative="1" as="geometry">
            <mxPoint x="1180" y="470" as="sourcePoint" />
            <mxPoint x="1335" y="683" as="targetPoint" />
          </mxGeometry>
        </mxCell>
        <mxCell id="Oc5IdtsNS1ppK-HnSMyC-19" style="rounded=0;orthogonalLoop=1;jettySize=auto;html=1;strokeColor=#000000;endArrow=none;startFill=0;shadow=0;jumpStyle=none;exitX=1;exitY=0.5;exitDx=0;exitDy=0;" edge="1" parent="1" source="-pO5D620ASrmPBSO5rts-42" target="Oc5IdtsNS1ppK-HnSMyC-15">
          <mxGeometry relative="1" as="geometry">
            <mxPoint x="1130" y="553.5" as="sourcePoint" />
            <mxPoint x="1285" y="766.5" as="targetPoint" />
          </mxGeometry>
        </mxCell>
        <mxCell id="Oc5IdtsNS1ppK-HnSMyC-20" value="&lt;div&gt;&lt;span style=&quot;font-size: 11px;&quot;&gt;Cloud&lt;/span&gt;&lt;/div&gt;" style="shape=umlActor;verticalLabelPosition=bottom;verticalAlign=top;html=1;outlineConnect=0;strokeColor=#666666;align=center;fontFamily=Helvetica;fontSize=12;fontColor=#000000;labelBackgroundColor=none;fillColor=#f5f5f5;horizontal=1;textShadow=0;" vertex="1" parent="1">
          <mxGeometry x="1100" y="294" width="30" height="60" as="geometry" />
        </mxCell>
        <mxCell id="Oc5IdtsNS1ppK-HnSMyC-21" value="&lt;span style=&quot;font-size: 11px;&quot;&gt;Smartphone Storage&lt;/span&gt;" style="shape=umlActor;verticalLabelPosition=bottom;verticalAlign=top;html=1;outlineConnect=0;strokeColor=#666666;align=center;fontFamily=Helvetica;fontSize=12;fontColor=#000000;labelBackgroundColor=none;fillColor=#f5f5f5;horizontal=1;textShadow=0;" vertex="1" parent="1">
          <mxGeometry x="1100" y="435" width="30" height="60" as="geometry" />
        </mxCell>
        <mxCell id="Oc5IdtsNS1ppK-HnSMyC-23" style="rounded=0;orthogonalLoop=1;jettySize=auto;html=1;strokeColor=#000000;endArrow=none;startFill=0;shadow=0;jumpStyle=none;exitX=0.611;exitY=-0.008;exitDx=0;exitDy=0;exitPerimeter=0;entryX=0;entryY=1;entryDx=0;entryDy=0;entryPerimeter=0;" edge="1" parent="1" source="-pO5D620ASrmPBSO5rts-47" target="Oc5IdtsNS1ppK-HnSMyC-20">
          <mxGeometry relative="1" as="geometry">
            <mxPoint x="1000" y="587" as="sourcePoint" />
            <mxPoint x="1290" y="580" as="targetPoint" />
          </mxGeometry>
        </mxCell>
        <mxCell id="Oc5IdtsNS1ppK-HnSMyC-24" style="rounded=0;orthogonalLoop=1;jettySize=auto;html=1;strokeColor=#000000;endArrow=none;startFill=0;shadow=0;jumpStyle=none;exitX=1;exitY=0.5;exitDx=0;exitDy=0;" edge="1" parent="1" source="-pO5D620ASrmPBSO5rts-32" target="Oc5IdtsNS1ppK-HnSMyC-20">
          <mxGeometry relative="1" as="geometry">
            <mxPoint x="1040" y="407" as="sourcePoint" />
            <mxPoint x="1330" y="400" as="targetPoint" />
          </mxGeometry>
        </mxCell>
        <mxCell id="Oc5IdtsNS1ppK-HnSMyC-25" style="rounded=0;orthogonalLoop=1;jettySize=auto;html=1;strokeColor=#000000;endArrow=none;startFill=0;shadow=0;jumpStyle=none;exitX=0.799;exitY=0.864;exitDx=0;exitDy=0;exitPerimeter=0;" edge="1" parent="1" source="-pO5D620ASrmPBSO5rts-32" target="Oc5IdtsNS1ppK-HnSMyC-21">
          <mxGeometry relative="1" as="geometry">
            <mxPoint x="1220" y="435" as="sourcePoint" />
            <mxPoint x="1355" y="391" as="targetPoint" />
          </mxGeometry>
        </mxCell>
        <mxCell id="Oc5IdtsNS1ppK-HnSMyC-26" style="rounded=0;orthogonalLoop=1;jettySize=auto;html=1;strokeColor=#000000;endArrow=none;startFill=0;shadow=0;jumpStyle=none;exitX=0.955;exitY=0.3;exitDx=0;exitDy=0;exitPerimeter=0;entryX=0;entryY=1;entryDx=0;entryDy=0;entryPerimeter=0;" edge="1" parent="1" source="-pO5D620ASrmPBSO5rts-47" target="Oc5IdtsNS1ppK-HnSMyC-21">
          <mxGeometry relative="1" as="geometry">
            <mxPoint x="995" y="550" as="sourcePoint" />
            <mxPoint x="1130" y="506" as="targetPoint" />
          </mxGeometry>
        </mxCell>
        <mxCell id="Oc5IdtsNS1ppK-HnSMyC-27" style="rounded=0;orthogonalLoop=1;jettySize=auto;html=1;strokeColor=#000000;endArrow=none;startFill=0;shadow=0;jumpStyle=none;exitX=0.5;exitY=0;exitDx=0;exitDy=0;" edge="1" parent="1" source="-pO5D620ASrmPBSO5rts-25" target="Oc5IdtsNS1ppK-HnSMyC-20">
          <mxGeometry relative="1" as="geometry">
            <mxPoint x="930" y="254" as="sourcePoint" />
            <mxPoint x="1065" y="210" as="targetPoint" />
            <Array as="points">
              <mxPoint x="730" y="220" />
            </Array>
          </mxGeometry>
        </mxCell>
        <mxCell id="Oc5IdtsNS1ppK-HnSMyC-28" style="rounded=0;orthogonalLoop=1;jettySize=auto;html=1;strokeColor=#000000;endArrow=none;startFill=0;shadow=0;jumpStyle=none;exitX=1;exitY=0.5;exitDx=0;exitDy=0;" edge="1" parent="1" source="-pO5D620ASrmPBSO5rts-26" target="Oc5IdtsNS1ppK-HnSMyC-20">
          <mxGeometry relative="1" as="geometry">
            <mxPoint x="1170" y="254" as="sourcePoint" />
            <mxPoint x="1305" y="210" as="targetPoint" />
          </mxGeometry>
        </mxCell>
        <mxCell id="Oc5IdtsNS1ppK-HnSMyC-29" style="rounded=0;orthogonalLoop=1;jettySize=auto;html=1;strokeColor=#000000;endArrow=none;startFill=0;shadow=0;jumpStyle=none;exitX=0.622;exitY=0.042;exitDx=0;exitDy=0;exitPerimeter=0;entryX=0.5;entryY=0.5;entryDx=0;entryDy=0;entryPerimeter=0;" edge="1" parent="1" source="-pO5D620ASrmPBSO5rts-31" target="Oc5IdtsNS1ppK-HnSMyC-20">
          <mxGeometry relative="1" as="geometry">
            <mxPoint x="1190" y="278" as="sourcePoint" />
            <mxPoint x="1325" y="234" as="targetPoint" />
            <Array as="points">
              <mxPoint x="600" y="280" />
            </Array>
          </mxGeometry>
        </mxCell>
        <mxCell id="Oc5IdtsNS1ppK-HnSMyC-30" value="&lt;span style=&quot;font-size: 11px;&quot;&gt;Longboard IMU&lt;/span&gt;" style="shape=umlActor;verticalLabelPosition=bottom;verticalAlign=top;html=1;outlineConnect=0;strokeColor=#666666;align=center;fontFamily=Helvetica;fontSize=12;fontColor=#000000;labelBackgroundColor=none;fillColor=#f5f5f5;horizontal=1;textShadow=0;" vertex="1" parent="1">
          <mxGeometry x="1100" y="800" width="30" height="60" as="geometry" />
        </mxCell>
        <mxCell id="Oc5IdtsNS1ppK-HnSMyC-31" value="&lt;div&gt;&lt;span style=&quot;font-size: 11px;&quot;&gt;Smartphone IMU&lt;/span&gt;&lt;/div&gt;" style="shape=umlActor;verticalLabelPosition=bottom;verticalAlign=top;html=1;outlineConnect=0;strokeColor=#666666;align=center;fontFamily=Helvetica;fontSize=12;fontColor=#000000;labelBackgroundColor=none;fillColor=#f5f5f5;horizontal=1;textShadow=0;" vertex="1" parent="1">
          <mxGeometry x="100" y="770" width="30" height="60" as="geometry" />
        </mxCell>
        <mxCell id="Oc5IdtsNS1ppK-HnSMyC-32" value="Stick Paddle Push&amp;nbsp;&lt;div&gt;Detection&lt;/div&gt;" style="ellipse;whiteSpace=wrap;html=1;fillColor=#ffcc99;strokeColor=#36393d;fontColor=#7EA6E0;" vertex="1" parent="1">
          <mxGeometry x="695" y="730" width="155" height="65" as="geometry" />
        </mxCell>
        <mxCell id="Oc5IdtsNS1ppK-HnSMyC-34" value="Stick Paddle Brake&amp;nbsp;&lt;div&gt;Detection&lt;/div&gt;" style="ellipse;whiteSpace=wrap;html=1;fillColor=#ffcc99;strokeColor=#36393d;fontColor=#7EA6E0;" vertex="1" parent="1">
          <mxGeometry x="655" y="830" width="155" height="65" as="geometry" />
        </mxCell>
        <mxCell id="Oc5IdtsNS1ppK-HnSMyC-35" value="Rider Fall Detection" style="ellipse;whiteSpace=wrap;html=1;fillColor=#ffcc99;strokeColor=#36393d;fontColor=#7EA6E0;" vertex="1" parent="1">
          <mxGeometry x="348" y="820" width="155" height="65" as="geometry" />
        </mxCell>
        <mxCell id="Oc5IdtsNS1ppK-HnSMyC-37" value="&lt;div&gt;&lt;span style=&quot;font-size: 11px;&quot;&gt;Smartphone GPS&lt;/span&gt;&lt;/div&gt;" style="shape=umlActor;verticalLabelPosition=bottom;verticalAlign=top;html=1;outlineConnect=0;strokeColor=#666666;align=center;fontFamily=Helvetica;fontSize=12;fontColor=#000000;labelBackgroundColor=none;fillColor=#f5f5f5;horizontal=1;textShadow=0;" vertex="1" parent="1">
          <mxGeometry x="100" y="870" width="30" height="60" as="geometry" />
        </mxCell>
        <mxCell id="Oc5IdtsNS1ppK-HnSMyC-38" style="rounded=0;orthogonalLoop=1;jettySize=auto;html=1;strokeColor=#000000;endArrow=none;startFill=0;shadow=0;jumpStyle=none;" edge="1" parent="1" source="Oc5IdtsNS1ppK-HnSMyC-37" target="Oc5IdtsNS1ppK-HnSMyC-35">
          <mxGeometry relative="1" as="geometry">
            <mxPoint x="160" y="895" as="sourcePoint" />
            <mxPoint x="302" y="840" as="targetPoint" />
          </mxGeometry>
        </mxCell>
        <mxCell id="Oc5IdtsNS1ppK-HnSMyC-41" style="rounded=0;orthogonalLoop=1;jettySize=auto;html=1;strokeColor=#000000;endArrow=none;startFill=0;shadow=0;jumpStyle=none;entryX=0.086;entryY=0.197;entryDx=0;entryDy=0;entryPerimeter=0;" edge="1" parent="1" source="Oc5IdtsNS1ppK-HnSMyC-31" target="Oc5IdtsNS1ppK-HnSMyC-35">
          <mxGeometry relative="1" as="geometry">
            <mxPoint x="140" y="908" as="sourcePoint" />
            <mxPoint x="363" y="874" as="targetPoint" />
          </mxGeometry>
        </mxCell>
        <mxCell id="Oc5IdtsNS1ppK-HnSMyC-42" style="rounded=0;orthogonalLoop=1;jettySize=auto;html=1;strokeColor=#000000;endArrow=none;startFill=0;shadow=0;jumpStyle=none;" edge="1" parent="1" source="Oc5IdtsNS1ppK-HnSMyC-32" target="Oc5IdtsNS1ppK-HnSMyC-15">
          <mxGeometry relative="1" as="geometry">
            <mxPoint x="920" y="780" as="sourcePoint" />
            <mxPoint x="1062" y="725" as="targetPoint" />
          </mxGeometry>
        </mxCell>
        <mxCell id="Oc5IdtsNS1ppK-HnSMyC-44" style="rounded=0;orthogonalLoop=1;jettySize=auto;html=1;strokeColor=#000000;endArrow=none;startFill=0;shadow=0;jumpStyle=none;exitX=0.933;exitY=0.749;exitDx=0;exitDy=0;exitPerimeter=0;" edge="1" parent="1" source="Oc5IdtsNS1ppK-HnSMyC-32" target="Oc5IdtsNS1ppK-HnSMyC-30">
          <mxGeometry relative="1" as="geometry">
            <mxPoint x="902" y="790" as="sourcePoint" />
            <mxPoint x="1120" y="729" as="targetPoint" />
          </mxGeometry>
        </mxCell>
        <mxCell id="Oc5IdtsNS1ppK-HnSMyC-45" style="rounded=0;orthogonalLoop=1;jettySize=auto;html=1;strokeColor=#000000;endArrow=none;startFill=0;shadow=0;jumpStyle=none;exitX=0.804;exitY=0.069;exitDx=0;exitDy=0;exitPerimeter=0;" edge="1" parent="1" source="Oc5IdtsNS1ppK-HnSMyC-34" target="Oc5IdtsNS1ppK-HnSMyC-15">
          <mxGeometry relative="1" as="geometry">
            <mxPoint x="912" y="800" as="sourcePoint" />
            <mxPoint x="1130" y="739" as="targetPoint" />
          </mxGeometry>
        </mxCell>
        <mxCell id="Oc5IdtsNS1ppK-HnSMyC-46" style="rounded=0;orthogonalLoop=1;jettySize=auto;html=1;strokeColor=#000000;endArrow=none;startFill=0;shadow=0;jumpStyle=none;exitX=0.976;exitY=0.659;exitDx=0;exitDy=0;exitPerimeter=0;" edge="1" parent="1" source="Oc5IdtsNS1ppK-HnSMyC-34" target="Oc5IdtsNS1ppK-HnSMyC-30">
          <mxGeometry relative="1" as="geometry">
            <mxPoint x="922" y="810" as="sourcePoint" />
            <mxPoint x="1140" y="749" as="targetPoint" />
          </mxGeometry>
        </mxCell>
        <mxCell id="Oc5IdtsNS1ppK-HnSMyC-47" value="Boost Longboard Speed" style="ellipse;whiteSpace=wrap;html=1;fillColor=#ffcc99;strokeColor=#36393d;fontColor=#7EA6E0;" vertex="1" parent="1">
          <mxGeometry x="527.5" y="980" width="155" height="65" as="geometry" />
        </mxCell>
        <mxCell id="Oc5IdtsNS1ppK-HnSMyC-48" value="Reduce Longboard Speed" style="ellipse;whiteSpace=wrap;html=1;fillColor=#ffcc99;strokeColor=#36393d;fontColor=#7EA6E0;" vertex="1" parent="1">
          <mxGeometry x="790" y="1020" width="155" height="65" as="geometry" />
        </mxCell>
        <mxCell id="Oc5IdtsNS1ppK-HnSMyC-49" style="rounded=0;orthogonalLoop=1;jettySize=auto;html=1;strokeColor=#000000;endArrow=none;startFill=0;shadow=0;jumpStyle=none;exitX=1;exitY=0;exitDx=0;exitDy=0;entryX=0;entryY=1;entryDx=0;entryDy=0;entryPerimeter=0;" edge="1" parent="1" source="Oc5IdtsNS1ppK-HnSMyC-47" target="Oc5IdtsNS1ppK-HnSMyC-15">
          <mxGeometry relative="1" as="geometry">
            <mxPoint x="780" y="955" as="sourcePoint" />
            <mxPoint x="979" y="910" as="targetPoint" />
          </mxGeometry>
        </mxCell>
        <mxCell id="Oc5IdtsNS1ppK-HnSMyC-50" style="rounded=0;orthogonalLoop=1;jettySize=auto;html=1;strokeColor=#000000;endArrow=none;startFill=0;shadow=0;jumpStyle=none;exitX=0.5;exitY=0;exitDx=0;exitDy=0;entryX=1;entryY=1;entryDx=0;entryDy=0;entryPerimeter=0;" edge="1" parent="1" source="Oc5IdtsNS1ppK-HnSMyC-48" target="Oc5IdtsNS1ppK-HnSMyC-15">
          <mxGeometry relative="1" as="geometry">
            <mxPoint x="840" y="1005" as="sourcePoint" />
            <mxPoint x="1039" y="960" as="targetPoint" />
          </mxGeometry>
        </mxCell>
        <mxCell id="Oc5IdtsNS1ppK-HnSMyC-51" style="rounded=0;orthogonalLoop=1;jettySize=auto;html=1;strokeColor=#000000;endArrow=none;startFill=0;shadow=0;jumpStyle=none;entryX=0.394;entryY=0.969;entryDx=0;entryDy=0;entryPerimeter=0;exitX=1;exitY=0.3333333333333333;exitDx=0;exitDy=0;exitPerimeter=0;" edge="1" parent="1" source="Oc5IdtsNS1ppK-HnSMyC-37" target="-pO5D620ASrmPBSO5rts-44">
          <mxGeometry relative="1" as="geometry">
            <mxPoint x="125" y="1004" as="sourcePoint" />
            <mxPoint x="348" y="970" as="targetPoint" />
          </mxGeometry>
        </mxCell>
      </root>
    </mxGraphModel>
  </diagram>
</mxfile>
